<svg xmlns="http://www.w3.org/2000/svg" width="63.55" height="42.367" viewBox="0 0 63.55 42.367">
  <path id="Icon_awesome-folder-open" data-name="Icon awesome-folder-open" d="M63.185,29.665l-7.991,13.7a7.061,7.061,0,0,1-6.1,3.5H4.968A2.648,2.648,0,0,1,2.68,42.885l7.991-13.7a7.061,7.061,0,0,1,6.1-3.5H60.9a2.648,2.648,0,0,1,2.287,3.982ZM16.77,22.153H52.958v-5.3a5.3,5.3,0,0,0-5.3-5.3H30.01L22.949,4.5H5.3A5.3,5.3,0,0,0,0,9.8V40.473L7.621,27.408A10.628,10.628,0,0,1,16.77,22.153Z" transform="translate(0 -4.5)" fill="#517abf"/>
</svg>
